<?xml version="1.0" standalone="no"?><!DOCTYPE svg PUBLIC "-//W3C//DTD SVG 1.1//EN" "http://www.w3.org/Graphics/SVG/1.1/DTD/svg11.dtd"><svg t="1706254075743" class="icon" viewBox="0 0 1024 1024" version="1.1" xmlns="http://www.w3.org/2000/svg" p-id="27368" xmlns:xlink="http://www.w3.org/1999/xlink" width="200" height="200"><path d="M725.333333 640m-85.333333 0a85.333333 85.333333 0 1 0 170.666667 0 85.333333 85.333333 0 1 0-170.666667 0Z" fill="#d81e06" p-id="27369"></path><path d="M911.786667 259.157333l0.042666-0.128-426.666666-170.666666-31.658667 79.232L674.432 256H128a42.666667 42.666667 0 0 0-42.666667 42.666667v512a42.666667 42.666667 0 0 0 42.666667 42.666666h768a42.666667 42.666667 0 0 0 42.666667-42.666666V298.666667a42.581333 42.581333 0 0 0-26.88-39.509334zM853.333333 768H170.666667v-256h682.666666v256z m0-341.333333H170.666667V341.333333h682.666666v85.333334z" fill="#d81e06" p-id="27370"></path><path d="M213.333333 640h85.333334v85.333333H213.333333z m128 0h85.333334v85.333333H341.333333z" fill="#d81e06" p-id="27371"></path></svg>