<?xml version="1.0" standalone="no"?><!DOCTYPE svg PUBLIC "-//W3C//DTD SVG 1.1//EN" "http://www.w3.org/Graphics/SVG/1.1/DTD/svg11.dtd"><svg t="1706254729571" class="icon" viewBox="0 0 1024 1024" version="1.1" xmlns="http://www.w3.org/2000/svg" p-id="31849" xmlns:xlink="http://www.w3.org/1999/xlink" width="200" height="200"><path d="M556.8 839.04H463.36a96 96 0 0 1-96-95.36V136.96a96 96 0 0 1 96-96H556.8a96 96 0 0 1 96 96v606.72a96 96 0 0 1-96 95.36zM463.36 104.96a32 32 0 0 0-32 32v606.72a31.36 31.36 0 0 0 32 31.36H556.8a32 32 0 0 0 32-31.36V136.96a32.64 32.64 0 0 0-32-32zM200.32 839.04H106.88a96 96 0 0 1-96-95.36V576a96 96 0 0 1 96-96h93.44A96 96 0 0 1 296.32 576v170.88a96 96 0 0 1-96 92.16zM106.88 540.8a32 32 0 0 0-32 32v170.88a31.36 31.36 0 0 0 32 31.36h93.44a31.36 31.36 0 0 0 32-31.36V576a32 32 0 0 0-32-32zM917.12 839.04h-93.44a96 96 0 0 1-96-95.36V428.8a96.64 96.64 0 0 1 96-96h93.44a96 96 0 0 1 96 96v314.88a96 96 0 0 1-96 95.36zM823.68 396.8a32.64 32.64 0 0 0-32 32v314.88a32 32 0 0 0 32 31.36h93.44a31.36 31.36 0 0 0 32-31.36V428.8a32 32 0 0 0-32-32zM981.12 951.04H42.88a32 32 0 0 1-32-32 32 32 0 0 1 32-32h938.24a32 32 0 0 1 32 32 32 32 0 0 1-32 32z" fill="#d81e06" p-id="31850"></path></svg>