<?xml version="1.0" standalone="no"?><!DOCTYPE svg PUBLIC "-//W3C//DTD SVG 1.1//EN" "http://www.w3.org/Graphics/SVG/1.1/DTD/svg11.dtd"><svg t="1706254592208" class="icon" viewBox="0 0 1024 1024" version="1.1" xmlns="http://www.w3.org/2000/svg" p-id="30345" xmlns:xlink="http://www.w3.org/1999/xlink" width="200" height="200"><path d="M708.3 775.7h-42V64l42 14z" fill="#d81e06" p-id="30346"></path><path d="M944.67 300.54L666.3 274V64l99.97 9.53C876.12 84 960 176.26 960 286.6c0 8.26-7.11 14.72-15.33 13.94zM708.29 775.7s3.9 162.44-113.81 181.79c-72.06 11.85-146.51-18.36-146.49-89.94 0.01-50.89 40.79-90.59 113.81-91.86 69.58-1.2 146.49 0.01 146.49 0.01z" fill="#d81e06" p-id="30347"></path><path d="M491 246.75H85c-11.6 0-21 9.4-21 21s9.4 21 21 21h406c11.6 0 21-9.4 21-21s-9.4-21-21-21zM491 414.75H85c-11.6 0-21 9.4-21 21s9.4 21 21 21h406c11.6 0 21-9.4 21-21s-9.4-21-21-21zM491 582.75H85c-11.6 0-21 9.4-21 21s9.4 21 21 21h406c11.6 0 21-9.4 21-21s-9.4-21-21-21z" fill="#d81e06" p-id="30348"></path></svg>